<svg width="28" height="24" viewBox="0 0 28 24" fill="none" xmlns="http://www.w3.org/2000/svg">
<path d="M8.72632 12.0504L0.662395 20.1143C0.238126 20.5411 -1.40532e-05 21.1184 -1.41058e-05 21.7202C-1.41584e-05 22.322 0.238125 22.8994 0.662395 23.3262C0.874159 23.5397 1.1261 23.7092 1.40369 23.8248C1.68128 23.9405 1.97902 24 2.27974 24C2.58045 24 2.87819 23.9405 3.15578 23.8248C3.43337 23.7092 3.68531 23.5397 3.89708 23.3262L13.5556 13.6677C13.7691 13.4559 13.9385 13.204 14.0542 12.9264C14.1698 12.6488 14.2294 12.3511 14.2294 12.0504C14.2294 11.7496 14.1698 11.4519 14.0542 11.1743C13.9385 10.8967 13.7691 10.6448 13.5556 10.433L3.89708 0.660644C3.68423 0.449521 3.43179 0.28249 3.15426 0.169129C2.87672 0.0557684 2.57953 -0.00169614 2.27974 3.71023e-05C1.97995 -0.0016962 1.68276 0.0557682 1.40522 0.169129C1.12768 0.28249 0.875248 0.44952 0.662397 0.660643C0.238127 1.08744 -1.23525e-05 1.66479 -1.24051e-05 2.26659C-1.24577e-05 2.86839 0.238127 3.44574 0.662396 3.87254L8.72632 12.0504Z" fill="#111111"/>
<path d="M21.7263 12.0504L13.6624 20.1143C13.2381 20.5411 13 21.1184 13 21.7202C13 22.322 13.2381 22.8994 13.6624 23.3262C13.8742 23.5397 14.1261 23.7092 14.4037 23.8248C14.6813 23.9405 14.979 24 15.2797 24C15.5805 24 15.8782 23.9405 16.1558 23.8248C16.4334 23.7092 16.6853 23.5397 16.8971 23.3262L26.5556 13.6677C26.7691 13.4559 26.9385 13.204 27.0542 12.9264C27.1698 12.6488 27.2294 12.3511 27.2294 12.0504C27.2294 11.7496 27.1698 11.4519 27.0542 11.1743C26.9385 10.8967 26.7691 10.6448 26.5556 10.433L16.8971 0.660644C16.6842 0.449521 16.4318 0.28249 16.1543 0.169129C15.8767 0.0557684 15.5795 -0.00169614 15.2797 3.71023e-05C14.9799 -0.0016962 14.6828 0.0557682 14.4052 0.169129C14.1277 0.28249 13.8752 0.44952 13.6624 0.660643C13.2381 1.08744 13 1.66479 13 2.26659C13 2.86839 13.2381 3.44574 13.6624 3.87254L21.7263 12.0504Z" fill="#111111"/>
</svg>
