<svg width="28" height="24" viewBox="0 0 28 24" fill="none" xmlns="http://www.w3.org/2000/svg">
<path d="M18.5031 11.9496L26.567 3.88571C26.9912 3.45891 27.2294 2.88156 27.2294 2.27976C27.2294 1.67796 26.9912 1.10061 26.567 0.673812C26.3552 0.460304 26.1033 0.290837 25.8257 0.175189C25.5481 0.0595409 25.2504 0 24.9496 0C24.6489 0 24.3512 0.0595409 24.0736 0.175189C23.796 0.290837 23.5441 0.460304 23.3323 0.673812L13.6738 10.3323C13.4603 10.5441 13.2908 10.796 13.1752 11.0736C13.0595 11.3512 13 11.6489 13 11.9496C13 12.2504 13.0595 12.5481 13.1752 12.8257C13.2908 13.1033 13.4603 13.3552 13.6738 13.567L23.3323 23.3394C23.5451 23.5505 23.7976 23.7175 24.0751 23.8309C24.3527 23.9442 24.6498 24.0017 24.9496 24C25.2494 24.0017 25.5466 23.9442 25.8242 23.8309C26.1017 23.7175 26.3541 23.5505 26.567 23.3394C26.9912 22.9126 27.2294 22.3352 27.2294 21.7334C27.2294 21.1316 26.9912 20.5543 26.567 20.1275L18.5031 11.9496Z" fill="#111111"/>
<path d="M5.50305 11.9496L13.567 3.88571C13.9912 3.45891 14.2294 2.88156 14.2294 2.27976C14.2294 1.67796 13.9912 1.10061 13.567 0.673812C13.3552 0.460304 13.1033 0.290837 12.8257 0.175189C12.5481 0.0595409 12.2504 0 11.9496 0C11.6489 0 11.3512 0.0595409 11.0736 0.175189C10.796 0.290837 10.5441 0.460304 10.3323 0.673812L0.673812 10.3323C0.460304 10.5441 0.290838 10.796 0.17519 11.0736C0.059542 11.3512 0 11.6489 0 11.9496C0 12.2504 0.059542 12.5481 0.17519 12.8257C0.290838 13.1033 0.460304 13.3552 0.673812 13.567L10.3323 23.3394C10.5451 23.5505 10.7976 23.7175 11.0751 23.8309C11.3527 23.9442 11.6498 24.0017 11.9496 24C12.2494 24.0017 12.5466 23.9442 12.8242 23.8309C13.1017 23.7175 13.3541 23.5505 13.567 23.3394C13.9912 22.9126 14.2294 22.3352 14.2294 21.7334C14.2294 21.1316 13.9912 20.5543 13.567 20.1275L5.50305 11.9496Z" fill="#111111"/>
</svg>
